<?xml version="1.0" encoding="utf-8"?>
<!-- Generator: Adobe Illustrator 27.5.0, SVG Export Plug-In . SVG Version: 6.00 Build 0)  -->
<svg version="1.1" id="레이어_1" xmlns="http://www.w3.org/2000/svg" xmlns:xlink="http://www.w3.org/1999/xlink" x="0px"
	 y="0px" viewBox="0 0 128 128" style="enable-background:new 0 0 128 128;" xml:space="preserve">
<style type="text/css">
	.st0{fill-rule:evenodd;clip-rule:evenodd;fill:#FFFFFF;}
	.st1{fill-rule:evenodd;clip-rule:evenodd;fill:none;stroke:#FFFFFF;stroke-width:3;stroke-miterlimit:10;}
	.st2{fill:none;stroke:#FFFFFF;stroke-width:3;stroke-miterlimit:10.0391;}
</style>
<g>
	<path class="st0" d="M118.4,16L118.4,16c-0.1,0.7-0.8,2.5-2.9,3.5l-0.8-0.9l-1.4,1.4c-1.6,0-3.1-0.8-4.1-2.1c0.1,0,0.3,0.1,0.5,0.1
		c0.2,0,0.5-0.1,0.5-0.5v-3.8c0-0.3-0.3-0.6-0.6-0.6c-0.1,0-0.1,0-0.2,0c-0.6,0.1-1.2,1.8-1.2,1.8c0-1.5,0.6-3,1.8-3.9
		c0.7-0.6,1.7-1.1,2.6-1.2c-0.7,0.4-1.1,1.1-1.1,1.6c0,0.9,0.5,0.8,0.7,0.7V17c0,0.1,0.1,0.1,0.1,0.2c0.1,0.2,0.4,0.3,0.6,0.3
		c0.5,0,1.2-0.6,1.2-0.6v-4.2c0-0.4-0.3-0.9-0.6-1.1c0,0,0.6-0.1,1,0.2l0,0c0.1-0.1,0.2-0.2,0.3-0.3c1.1-1,2.1-1.3,2.9-1.5l0,0
		c0,0-1.5,1.2-1.5,2.8c0,1.2,0,4.1,0,4.1C116.8,17.5,117.6,16.7,118.4,16z"/>
	<path class="st0" d="M113.4,6.3c-4.7,0-8.5,3.8-8.5,8.5s3.8,8.5,8.5,8.5c4.7,0,8.5-3.8,8.5-8.5c0,0,0,0,0,0
		C121.8,10.1,118,6.3,113.4,6.3z M113.4,22.9c-4.5,0-8.1-3.6-8.1-8.1c0-4.5,3.6-8.1,8.1-8.1c4.5,0,8.1,3.6,8.1,8.1c0,0,0,0,0,0
		C121.5,19.2,117.9,22.9,113.4,22.9L113.4,22.9z"/>
</g>
<g>
	<circle class="st1" cx="43.7" cy="30" r="13.2"/>
	<path class="st1" d="M23.3,63.6c0-11.2,9.1-20.3,20.3-20.3S64,52.4,64,63.6"/>
	<circle class="st1" cx="84.3" cy="30" r="13.2"/>
	<path class="st1" d="M64,63.6c0-11.2,9.1-20.3,20.3-20.3s20.3,9.1,20.3,20.3"/>
</g>
<g id="XMLID_1135_">
	<path class="st2" d="M79.2,93.6L54.6,68.9c2.2-4.6,1.4-10.2-2.4-14s-9.4-4.6-14-2.4l6.8,6.8l-5.8,5.8l-6.8-6.8
		c-2.2,4.6-1.4,10.2,2.4,14c3.8,3.8,9.4,4.6,14,2.4l24.6,24.6c-2.2,4.6-1.4,10.2,2.4,14c3.8,3.8,9.4,4.6,14,2.4l-6.8-6.8l5.8-5.8
		l6.8,6.8c2.2-4.6,1.4-10.2-2.4-14C89.5,92.2,83.8,91.4,79.2,93.6z"/>
	<g id="XMLID_1136_">
		<path id="XMLID_1137_" class="st2" d="M55.3,81.2L33.5,103c-1.6,1.6-2.4,3.7-2.4,5.8c0,2.1,0.8,4.2,2.4,5.8
			c3.2,3.2,8.4,3.2,11.6,0l21.7-21.7"/>
		<line class="st2" x1="56.8" y1="91.3" x2="37.9" y2="110.2"/>
		<polyline id="XMLID_1138_" class="st2" points="64,78.3 78.4,64 79.8,56.3 92.4,51.7 96.5,55.8 91.8,68.3 84.2,69.8 69.8,84.1 		
			"/>
	</g>
</g>
</svg>
